<svg xmlns="http://www.w3.org/2000/svg" width="120"
    height="120" viewBox="0 0 120 120" fill="none"  xmlns:v="https://vecta.io/nano">
<path d="M 60,60  m -55,0 a 55,55 0 1,1 110,0 a 55,55 0 1,1 -110,0" fill="#41b883"/>
<path d="M 60,60  m -50,0 a 50,50 0 1,1 100,0 a 50,50 0 1,1 -100,0" fill="#34495e"/>
<path d="M 60,10 A50,50 0 0,0 60,110" fill="#abf8c6"/>
<!-- <circle cx="60" cy="54" r="25" fill="#41b883"/> -->
<path d="M 20,52 l25,-2 l2,3 l-27,2 z" fill="#41b883"/>
<path d="M 100,52 l-25,-2 l-2,3 l27,2 z" fill="#41b883"/>
<circle cx="35" cy="67" r="7" fill="#41b883"/>
<circle cx="85" cy="67" r="7" fill="#41b883"/>
<path d="M 35,90 C 45,102  75,102  85,90" fill="none" stroke="#41b883" stroke-width="5" stroke-linecap="round"/>
</svg>